<svg width="170" height="47" viewBox="0 0 170 47" fill="none" xmlns="http://www.w3.org/2000/svg">
<path d="M39.7605 46.294C38.1097 46.294 36.5572 45.6495 35.3898 44.4821C34.2225 43.3148 33.5779 41.7622 33.5779 40.1114C33.5779 38.4607 34.2185 36.9081 35.3859 35.7447C36.5532 34.5774 38.1058 33.9328 39.7605 33.9328C41.4152 33.9328 42.9638 34.5734 44.1311 35.7408C46.5405 38.1501 46.5405 42.0727 44.1311 44.486C42.9638 45.6534 41.4152 46.294 39.7644 46.294H39.7605Z" fill="white"/>
<path d="M6.1826 13.3411C4.53181 13.3411 2.97928 12.6965 1.80801 11.5292C0.644594 10.3619 0 8.80932 0 7.15853C0 5.50774 0.640664 3.95521 1.80801 2.7918C2.97535 1.62052 4.53181 0.979858 6.1826 0.979858C7.8334 0.979858 9.38592 1.62052 10.5493 2.78787C11.7167 3.95521 12.3613 5.50774 12.3613 7.15853C12.3613 8.80932 11.7167 10.3619 10.5493 11.5292C9.38199 12.6965 7.8334 13.3372 6.1826 13.3372V13.3411Z" fill="white"/>
<path d="M39.4814 13.1564C37.8306 13.1564 36.2781 12.5118 35.1107 11.3444C32.7014 8.93508 32.7014 5.01248 35.1107 2.60704C36.2781 1.4397 37.8306 0.795105 39.4853 0.795105C41.1401 0.795105 42.6887 1.4397 43.856 2.60704C46.2654 5.01641 46.2654 8.93901 43.856 11.3523C42.6887 12.5157 41.1361 13.1603 39.4893 13.1603L39.4814 13.1564Z" fill="white"/>
<path d="M6.34375 46.2941C4.69296 46.2941 3.14043 45.6495 1.96915 44.4821C0.801808 43.3148 0.161144 41.7622 0.161144 40.1115C0.161144 38.4607 0.805739 36.9081 1.97308 35.7408C2.21677 35.4932 2.4919 35.2691 2.84171 35.0333C2.94784 34.9586 3.0461 34.8997 3.14436 34.8407C3.37233 34.711 3.60029 34.5892 3.81254 34.4909C3.92652 34.4398 4.04836 34.3848 4.17414 34.3376C4.39817 34.2551 4.64579 34.1804 4.92879 34.1136C4.98381 34.0979 5.03491 34.0861 5.086 34.0703C5.11745 34.0625 5.14889 34.0507 5.18033 34.0428L6.55599 33.9485C6.72893 33.9564 6.9176 33.9799 7.11805 34.0035L7.19666 34.0153C7.24382 34.0192 7.30671 34.0271 7.3696 34.031H7.42462L7.48751 34.0468H7.54254C7.64473 34.0468 7.74299 34.0507 7.84125 34.0507C10.2113 34.0507 12.5539 33.0406 14.2636 31.2797C15.9655 29.5267 16.9049 27.1685 16.8381 24.8102V24.7394L16.8223 24.6648C16.8105 24.5979 16.8066 24.5311 16.8027 24.4643C16.7988 24.3857 16.7909 24.3071 16.7791 24.2285L16.7634 24.0909C16.7516 23.973 16.7359 23.8551 16.728 23.7372L16.8341 22.3576C16.842 22.3222 16.8538 22.2908 16.8616 22.2593L16.8852 22.1729C16.9481 21.9095 17.0149 21.6501 17.1171 21.3946C17.1682 21.2492 17.2154 21.1431 17.2704 21.033C17.3805 20.7933 17.4944 20.5732 17.6281 20.3491C17.687 20.2509 17.7421 20.1526 17.8089 20.0583C18.0604 19.6927 18.2845 19.4176 18.5203 19.1818C19.6876 18.0144 21.2402 17.3738 22.8949 17.3738C24.5496 17.3738 26.0982 18.0144 27.2695 19.1818C29.6749 21.5911 29.6749 25.5137 27.2656 27.9231C27.0219 28.1668 26.7467 28.3908 26.393 28.6306C26.2908 28.7013 26.1925 28.7603 26.0943 28.8153C25.8702 28.949 25.6501 29.0669 25.4261 29.1691C25.3043 29.2241 25.1863 29.2791 25.0684 29.3224C24.8326 29.4088 24.5811 29.4835 24.3177 29.5464L24.1684 29.5857C24.133 29.5936 24.1015 29.6053 24.0701 29.6132L22.6826 29.7115C22.5215 29.7036 22.3486 29.684 22.1678 29.6604L22.0459 29.6447C22.0066 29.6368 21.9398 29.6329 21.873 29.6289H21.8258L21.7551 29.6093H21.7C21.5978 29.6093 21.4996 29.6053 21.3974 29.6053C19.0273 29.6053 16.6848 30.6155 14.975 32.3724C13.2692 34.1254 12.3338 36.4836 12.4006 38.8458V38.9166L12.4163 38.9873C12.4281 39.0542 12.432 39.121 12.436 39.1878C12.4399 39.2664 12.4477 39.345 12.4595 39.4236C12.4595 39.4708 12.4713 39.5573 12.4831 39.6398C12.4949 39.7341 12.5067 39.8285 12.5067 39.9228V39.9582L12.4084 41.2827C12.4006 41.3102 12.3573 41.4635 12.3456 41.5107C12.2787 41.7976 12.2041 42.0492 12.1176 42.2771C12.0704 42.4029 12.0233 42.513 11.9682 42.6269C11.8621 42.8628 11.7442 43.0868 11.6106 43.3148C11.5516 43.4091 11.4848 43.5192 11.414 43.6253C11.1861 43.9594 10.9581 44.2384 10.7105 44.486C9.54707 45.6534 7.99454 46.2941 6.34375 46.2941Z" fill="white"/>
<path d="M23.0364 46.2941C21.3856 46.2941 19.8291 45.6495 18.6618 44.4821C17.4945 43.3148 16.8538 41.7622 16.8499 40.1115C16.8499 38.4607 17.4905 36.9121 18.6579 35.7447C18.8976 35.505 19.1649 35.2849 19.5344 35.0294C19.6248 34.9665 19.723 34.9075 19.8291 34.8486C20.0571 34.711 20.2733 34.597 20.5013 34.4948C20.6231 34.4398 20.741 34.3848 20.8589 34.3415C21.0869 34.259 21.3384 34.1843 21.6018 34.1254C21.6018 34.1254 21.818 34.0625 21.8455 34.0546L23.2447 33.9524C23.4098 33.9603 23.5867 33.9839 23.7753 34.0075L23.8775 34.0192C23.9443 34.0271 24.0033 34.031 24.0622 34.031C24.0858 34.031 24.1094 34.031 24.1291 34.031H24.1723L24.2313 34.0428C24.3334 34.0428 24.4356 34.0468 24.5378 34.0468C26.904 34.0468 29.2426 33.0366 30.9484 31.2797C32.6503 29.5267 33.5897 27.1685 33.5228 24.8102L33.515 24.5233L33.4875 24.4918C33.4875 24.4918 33.4875 24.4722 33.4875 24.4604C33.4875 24.3936 33.4796 24.3267 33.4718 24.256L33.4482 24.0595C33.4364 23.9494 33.4207 23.8433 33.4167 23.7332L33.5111 22.3969C33.5189 22.3654 33.5661 22.2004 33.5779 22.1493C33.6565 21.8309 33.7272 21.5951 33.8058 21.3868C33.8491 21.261 33.9041 21.147 33.9591 21.0291C34.0574 20.8129 34.1753 20.5928 34.3168 20.3531L34.3443 20.3098C34.3915 20.2273 34.4386 20.1487 34.4937 20.0701C34.7452 19.7006 34.9732 19.4255 35.209 19.1857C36.3764 18.0184 37.9328 17.3738 39.5836 17.3738C41.2344 17.3738 42.7869 18.0144 43.9543 19.1818C46.3636 21.5911 46.3636 25.5137 43.9543 27.927C43.7224 28.1589 43.4433 28.383 43.0778 28.6345C43.007 28.6817 42.9402 28.721 42.8734 28.7642L42.7633 28.831C42.555 28.9529 42.331 29.0708 42.1109 29.173C41.989 29.228 41.8711 29.283 41.7493 29.3263C41.5331 29.4088 41.2934 29.4756 40.9946 29.5503C40.9357 29.566 40.8846 29.5818 40.8374 29.5936C40.802 29.6014 40.7706 29.6132 40.7392 29.6211L39.3635 29.7154C39.163 29.7075 38.9469 29.6761 38.7346 29.6486C38.6639 29.6407 38.6089 29.6368 38.5538 29.6329C38.5342 29.6329 38.5106 29.6329 38.4909 29.6329L38.373 29.6211C38.2708 29.6171 38.1686 29.6171 38.0665 29.6171C35.6964 29.6171 33.3617 30.6273 31.6519 32.3842C29.9501 34.1372 29.0107 36.4954 29.0814 38.8576V38.9284L29.0972 38.9952C29.1089 39.0659 29.1129 39.1367 29.1168 39.2074C29.1207 39.2821 29.1286 39.3529 29.1365 39.4197C29.1404 39.4786 29.1483 39.5533 29.1561 39.6241C29.1679 39.7302 29.1797 39.8324 29.1836 39.9385L29.0814 41.2945C29.0736 41.326 29.0225 41.5068 29.0225 41.5068C28.9557 41.7937 28.881 42.0452 28.7945 42.2811C28.7552 42.3911 28.7041 42.5012 28.653 42.6112L28.6373 42.6505C28.5351 42.8706 28.4211 43.0907 28.2914 43.303C28.2285 43.4091 28.1656 43.5113 28.0988 43.6096C27.8551 43.9594 27.6272 44.2424 27.3835 44.486C26.224 45.6495 24.6715 46.2901 23.0246 46.2901L23.0364 46.2941Z" fill="white"/>
<path d="M6.34769 29.6093C4.6969 29.6093 3.14437 28.9686 1.97703 27.8013C0.809682 26.6339 0.165088 25.0814 0.165088 23.4267C0.165088 21.7759 0.805752 20.2273 1.9731 19.0599C2.21285 18.8202 2.49192 18.5961 2.84959 18.3485C2.94392 18.2856 3.05004 18.2227 3.15223 18.1599C3.36448 18.0341 3.58458 17.9162 3.81648 17.8101C3.93439 17.755 4.05624 17.7 4.18201 17.6568C4.40998 17.5742 4.66153 17.4995 4.92094 17.4406L5.07816 17.3974C5.10567 17.3895 5.13318 17.3777 5.16463 17.3738L6.56387 17.2716C6.74467 17.2794 6.94119 17.307 7.14951 17.3345H7.19274C7.26349 17.3463 7.31851 17.3502 7.37747 17.3541C7.39712 17.3541 7.41678 17.3541 7.43643 17.3541L7.49538 17.3659H7.55041C7.6526 17.3698 7.75479 17.3738 7.85699 17.3738C10.2231 17.3738 12.5617 16.3676 14.2676 14.6067C15.9694 12.8537 16.9088 10.4955 16.8381 8.13327V8.06645L16.8224 7.99964C16.8066 7.92496 16.8066 7.85028 16.8027 7.77167C16.8027 7.70878 16.7948 7.6459 16.787 7.58301L16.7673 7.39435C16.7516 7.28036 16.7398 7.16638 16.7359 7.0524L16.8302 5.75535L16.8381 5.7239V5.69639C16.8459 5.66495 16.897 5.49594 16.897 5.49594C16.9756 5.16185 17.0464 4.92209 17.125 4.70985C17.1682 4.59193 17.2233 4.47795 17.2783 4.35611C17.3805 4.136 17.4984 3.90803 17.632 3.68007L17.6517 3.64469C17.7067 3.55429 17.7578 3.46782 17.8168 3.37742C18.0604 3.02368 18.2884 2.74462 18.5203 2.50879C19.6877 1.34145 21.2402 0.696854 22.8949 0.696854C24.5496 0.696854 26.0982 1.33752 27.2656 2.50486C29.6749 4.91423 29.671 8.83682 27.2656 11.2462C27.0258 11.4859 26.7428 11.7178 26.3969 11.9537C26.3026 12.0205 26.2201 12.0677 26.1375 12.1188L26.0904 12.1463C25.8624 12.2799 25.6384 12.3978 25.43 12.4961C25.3043 12.555 25.1903 12.6061 25.0684 12.6494C24.8365 12.7358 24.5889 12.8066 24.3138 12.8734C24.2548 12.8891 24.2037 12.9048 24.1487 12.9166C24.1173 12.9245 24.0858 12.9363 24.0505 12.9441L22.6787 13.0385C22.5058 13.0306 22.3211 13.007 22.1245 12.9835L22.042 12.9717C21.9791 12.9638 21.9202 12.9599 21.8651 12.9559C21.8415 12.9559 21.818 12.9559 21.7983 12.952H21.7511L21.6922 12.9402C21.59 12.9402 21.4878 12.9324 21.3856 12.9324C19.0195 12.9324 16.6809 13.9425 14.975 15.6994C13.2732 17.4524 12.3338 19.8146 12.4006 22.1729V22.2436L12.4163 22.3104C12.432 22.3812 12.432 22.4519 12.4399 22.5227C12.4438 22.5934 12.4517 22.6681 12.4595 22.7388C12.4635 22.7978 12.4753 22.8685 12.4831 22.9432C12.4949 23.0454 12.5067 23.1476 12.5106 23.2498L12.4124 24.5979C12.4045 24.6333 12.3927 24.6687 12.3809 24.7041L12.3456 24.8259C12.2787 25.1286 12.2041 25.3801 12.1215 25.6002C12.0783 25.7181 12.0193 25.836 11.9643 25.9618C11.8621 26.1819 11.7481 26.402 11.6145 26.6261C11.5516 26.7322 11.4927 26.8344 11.4258 26.9287C11.1704 27.2982 10.9542 27.5654 10.7144 27.8013C9.54708 28.9686 7.99848 29.6093 6.34769 29.6093Z" fill="white"/>
<path d="M57.0152 18.3603H52.5345V15.2081H65.2888V18.3603H60.757V31.8064H57.0152V18.3603Z" fill="white"/>
<path d="M77.1548 24.7866H71.0469V28.7249H77.8662V31.8025H67.3012V15.2081H77.5204V18.2856H71.043V21.7326H77.1509V24.7866H77.1548Z" fill="white"/>
<path d="M92.5936 31.3623C91.9294 31.6846 90.3533 32.0776 88.3605 32.0776C82.6221 32.0776 79.6664 28.4812 79.6664 23.7568C79.6664 18.093 83.703 14.9644 88.7261 14.9644C90.6717 14.9644 92.1495 15.3339 92.8138 15.7033L92.0237 18.659C91.2848 18.3407 90.2275 18.0419 88.8715 18.0419C85.9158 18.0419 83.6008 19.8382 83.6008 23.5328C83.6008 26.858 85.5699 28.949 88.8951 28.949C90.0506 28.949 91.2848 28.7289 92.0473 28.4066L92.5897 31.3623H92.5936Z" fill="white"/>
<path d="M98.847 15.2081V21.5872H105.026V15.2081H108.767V31.8025H105.026V24.8574H98.847V31.8025H95.1052V15.2081H98.847Z" fill="white"/>
<path d="M112.266 15.2081H114.431V30.0063H121.522V31.8025H112.262V15.2081H112.266Z" fill="white"/>
<path d="M137.134 23.3323C137.134 29.0197 133.663 32.0737 129.426 32.0737C125.189 32.0737 121.966 28.6502 121.966 23.6271C121.966 18.3564 125.216 14.9094 129.65 14.9094C134.084 14.9094 137.134 18.38 137.134 23.3323ZM124.23 23.58C124.23 27.1488 126.152 30.3286 129.548 30.3286C132.944 30.3286 134.866 27.1999 134.866 23.4345C134.866 20.1094 133.14 16.6624 129.571 16.6624C126.003 16.6624 124.23 19.96 124.23 23.58Z" fill="white"/>
<path d="M152.568 31.0675C151.609 31.4369 149.687 31.9793 147.447 31.9793C144.936 31.9793 142.868 31.3387 141.241 29.7861C139.814 28.4066 138.926 26.1898 138.926 23.6075C138.926 18.659 142.349 15.0391 147.915 15.0391C149.837 15.0391 151.362 15.4596 152.077 15.8016L151.535 17.5506C150.646 17.1301 149.542 16.8353 147.868 16.8353C143.831 16.8353 141.194 19.3469 141.194 23.5092C141.194 27.6716 143.705 30.2067 147.596 30.2067C149 30.2067 149.959 30.0102 150.454 29.7626V24.8141H147.105V23.0886H152.572V31.0675H152.568Z" fill="white"/>
<path d="M170 23.3323C170 29.0197 166.529 32.0737 162.292 32.0737C158.055 32.0737 154.832 28.6502 154.832 23.6271C154.832 18.3564 158.083 14.9094 162.516 14.9094C166.95 14.9094 170 18.38 170 23.3323ZM157.096 23.58C157.096 27.1488 159.018 30.3286 162.414 30.3286C165.81 30.3286 167.732 27.1999 167.732 23.4345C167.732 20.1094 166.007 16.6624 162.438 16.6624C158.869 16.6624 157.096 19.96 157.096 23.58Z" fill="white"/>
</svg>
